<svg xmlns="http://www.w3.org/2000/svg" width="24.824" height="24.399" viewBox="0 0 24.824 24.399"><defs><style>.a{fill:none;stroke:#707070;}</style></defs><g transform="translate(0.5 0.206)"><path class="a" d="M5.257,23.693a.361.361,0,0,1-.361-.361V18.189A8.762,8.762,0,0,1,0,10.065C0,4.494,5.121.294,11.912.294s11.912,4.2,11.912,9.771-5.121,9.77-11.912,9.77c-.223,0-.442-.012-.661-.024h-.014l-5.78,3.823A.36.36,0,0,1,5.257,23.693ZM11.912,1.016c-6.379,0-11.19,3.89-11.19,9.049a8.008,8.008,0,0,0,4.695,7.58.361.361,0,0,1,.2.323v4.693l5.32-3.519a.329.329,0,0,1,.218-.059l.134.007c.206.012.412.022.622.022,6.379,0,11.19-3.89,11.19-9.048S18.291,1.016,11.912,1.016Z" transform="translate(0 0)"/></g></svg>